<?xml version="1.0" encoding="UTF-8"?>
<svg version="1.1" xmlns="http://www.w3.org/2000/svg" width="40" height="40">
<path d="M0 0 C13.2 0 26.4 0 40 0 C40 13.2 40 26.4 40 40 C26.8 40 13.6 40 0 40 C0 26.8 0 13.6 0 0 Z " fill="#FDFCFE" transform="translate(0,0)"/>
<path d="M0 0 C0.78503906 0.00644531 1.57007813 0.01289063 2.37890625 0.01953125 C4.4375 0.1875 4.4375 0.1875 6.4375 1.1875 C6.1075 2.5075 5.7775 3.8275 5.4375 5.1875 C2.7975 4.8575 0.1575 4.5275 -2.5625 4.1875 C-2.5625 5.1775 -2.5625 6.1675 -2.5625 7.1875 C-2.00820312 7.38085938 -1.45390625 7.57421875 -0.8828125 7.7734375 C0.20386719 8.16402344 0.20386719 8.16402344 1.3125 8.5625 C2.03179687 8.81773438 2.75109375 9.07296875 3.4921875 9.3359375 C5.4375 10.1875 5.4375 10.1875 7.4375 12.1875 C7.8125 15.625 7.8125 15.625 7.4375 19.1875 C5.14256587 22.03321832 3.63510785 22.16594278 0 22.5625 C-3.70566687 22.1724298 -5.58318575 21.354274 -8.5625 19.1875 C-7.9025 17.8675 -7.2425 16.5475 -6.5625 15.1875 C-5.5725 15.8475 -4.5825 16.5075 -3.5625 17.1875 C-0.43728167 17.35449232 -0.43728167 17.35449232 2.4375 17.1875 C2.4375 16.1975 2.4375 15.2075 2.4375 14.1875 C1.88320312 13.99414062 1.32890625 13.80078125 0.7578125 13.6015625 C0.03335937 13.34117188 -0.69109375 13.08078125 -1.4375 12.8125 C-2.51644531 12.42964844 -2.51644531 12.42964844 -3.6171875 12.0390625 C-5.5625 11.1875 -5.5625 11.1875 -7.5625 9.1875 C-7.875 5.6875 -7.875 5.6875 -7.5625 2.1875 C-4.404724 0.082316 -3.60852866 -0.06539344 0 0 Z " fill="#6D3DBB" transform="translate(11.5625,8.8125)"/>
<path d="M0 0 C1.65 0 3.3 0 5 0 C5 5.94 5 11.88 5 18 C7.97 18 10.94 18 14 18 C14 19.32 14 20.64 14 22 C9.38 22 4.76 22 0 22 C0 14.74 0 7.48 0 0 Z " fill="#7A4EC1" transform="translate(23,9)"/>
</svg>
